<svg width="289" height="64" viewBox="0 0 289 64" fill="none" xmlns="http://www.w3.org/2000/svg">
<path d="M108.151 8.16982C108.515 8.7404 108.826 9.51848 109.085 10.5041C109.396 11.4377 109.552 12.4233 109.552 13.4607C109.552 15.4838 109.111 16.9361 108.229 17.818C107.399 18.6479 106.258 19.0629 104.806 19.0629H88.4661V27.8552H105.506C105.921 28.4258 106.258 29.1779 106.518 30.1116C106.829 31.0453 106.984 32.0308 106.984 33.0683C106.984 35.0395 106.543 36.4659 105.662 37.3477C104.832 38.1777 103.69 38.5927 102.238 38.5927H88.6217V55.0101C88.0511 55.1657 87.1434 55.3213 85.8985 55.477C84.7054 55.6326 83.5124 55.7104 82.3193 55.7104C81.1262 55.7104 80.0629 55.6066 79.1292 55.3991C78.2474 55.2435 77.4952 54.9323 76.8728 54.4654C76.2503 53.9986 75.7834 53.3502 75.4722 52.5203C75.161 51.6903 75.0054 50.601 75.0054 49.2523V15.4059C75.0054 13.1755 75.6538 11.4118 76.9506 10.115C78.2474 8.81822 80.011 8.16982 82.2415 8.16982H108.151ZM114.41 7.0027C114.41 5.03157 115.059 3.37167 116.355 2.023C117.704 0.674333 119.468 0 121.646 0C123.825 0 125.563 0.674333 126.859 2.023C128.208 3.37167 128.882 5.03157 128.882 7.0027C128.882 8.97384 128.208 10.6337 126.859 11.9824C125.563 13.3311 123.825 14.0054 121.646 14.0054C119.468 14.0054 117.704 13.3311 116.355 11.9824C115.059 10.6337 114.41 8.97384 114.41 7.0027ZM128.26 55.2435C127.689 55.3473 126.833 55.4769 125.692 55.6326C124.603 55.84 123.488 55.9438 122.347 55.9438C121.205 55.9438 120.168 55.866 119.234 55.7104C118.352 55.5548 117.6 55.2435 116.978 54.7767C116.355 54.3098 115.863 53.6874 115.499 52.9093C115.188 52.0794 115.033 51.0159 115.033 49.7192V18.0514C115.603 17.9476 116.433 17.818 117.522 17.6624C118.664 17.4549 119.805 17.3511 120.946 17.3511C122.087 17.3511 123.099 17.4289 123.981 17.5846C124.914 17.7402 125.692 18.0514 126.315 18.5183C126.937 18.9851 127.404 19.6335 127.715 20.4634C128.078 21.2415 128.26 22.279 128.26 23.5758V55.2435ZM160.646 31.3565C160.646 29.7485 160.179 28.5814 159.245 27.8552C158.363 27.0771 157.144 26.6881 155.588 26.6881C154.551 26.6881 153.513 26.8177 152.476 27.0771C151.49 27.3365 150.634 27.7255 149.908 28.2442V55.2435C149.389 55.3991 148.559 55.5548 147.418 55.7104C146.329 55.866 145.188 55.9438 143.995 55.9438C142.854 55.9438 141.816 55.866 140.882 55.7104C140.001 55.5548 139.248 55.2435 138.626 54.7767C138.004 54.3098 137.511 53.6874 137.148 52.9093C136.836 52.0794 136.681 51.0159 136.681 49.7192V26.3768C136.681 24.9763 136.966 23.8351 137.537 22.9533C138.159 22.0714 138.989 21.2675 140.027 20.5413C141.79 19.2963 143.995 18.2848 146.64 17.5068C149.338 16.7287 152.32 16.3396 155.588 16.3396C161.45 16.3396 165.962 17.6364 169.127 20.23C172.29 22.7717 173.873 26.325 173.873 30.8897V55.2435C173.354 55.3991 172.524 55.5548 171.383 55.7104C170.294 55.866 169.153 55.9438 167.96 55.9438C166.818 55.9438 165.781 55.866 164.847 55.7104C163.965 55.5548 163.213 55.2435 162.591 54.7767C161.968 54.3098 161.476 53.6874 161.112 52.9093C160.801 52.0794 160.646 51.0159 160.646 49.7192V31.3565ZM180.41 36.414C180.41 32.9905 180.928 30.0338 181.966 27.544C183.003 25.0023 184.429 22.9015 186.245 21.2415C188.113 19.5816 190.265 18.3626 192.703 17.5846C195.193 16.7546 197.864 16.3396 200.717 16.3396C201.754 16.3396 202.766 16.4434 203.752 16.6509C204.737 16.8065 205.542 17.0139 206.164 17.2733V4.66847C206.682 4.51285 207.512 4.35724 208.654 4.20162C209.795 3.99414 210.962 3.89039 212.155 3.89039C213.296 3.89039 214.308 3.9682 215.19 4.12381C216.123 4.27943 216.901 4.59066 217.524 5.05751C218.146 5.52435 218.613 6.17275 218.924 7.0027C219.236 7.78078 219.391 8.81822 219.391 10.115V46.9959C219.391 49.4339 218.249 51.3791 215.968 52.8315C214.463 53.817 212.518 54.6729 210.132 55.3991C207.745 56.1772 204.997 56.5663 201.885 56.5663C198.513 56.5663 195.478 56.0994 192.781 55.1657C190.136 54.232 187.879 52.8833 186.012 51.1197C184.196 49.3561 182.795 47.2553 181.81 44.8173C180.876 42.3274 180.41 39.5264 180.41 36.414ZM202.507 26.6881C199.706 26.6881 197.553 27.4921 196.049 29.1001C194.544 30.7081 193.793 33.1461 193.793 36.414C193.793 39.6301 194.493 42.068 195.893 43.728C197.294 45.336 199.317 46.14 201.962 46.14C202.896 46.14 203.726 46.0104 204.452 45.751C205.23 45.4397 205.827 45.1025 206.242 44.7395V27.6218C205.204 26.9993 203.959 26.6881 202.507 26.6881ZM242.262 55.0101C241.691 55.1657 240.784 55.3213 239.539 55.477C238.345 55.6326 237.152 55.7104 235.96 55.7104C234.766 55.7104 233.703 55.6066 232.769 55.3991C231.887 55.2435 231.135 54.9323 230.513 54.4654C229.891 53.9986 229.424 53.3502 229.112 52.5203C228.801 51.6903 228.646 50.601 228.646 49.2523V8.16982C229.216 8.06607 230.124 7.9364 231.369 7.78078C232.614 7.5733 233.806 7.46955 234.948 7.46955C236.14 7.46955 237.178 7.5733 238.06 7.78078C238.994 7.9364 239.772 8.24763 240.395 8.71447C241.017 9.18132 241.484 9.82975 241.795 10.6597C242.106 11.4896 242.262 12.5789 242.262 13.9276V55.0101ZM250.174 19.0629C249.81 18.4923 249.474 17.7142 249.163 16.7287C248.851 15.7431 248.696 14.7057 248.696 13.6164C248.696 11.5934 249.136 10.141 250.018 9.25913C250.952 8.3773 252.145 7.9364 253.598 7.9364H287.522C287.885 8.50698 288.222 9.28506 288.533 10.2706C288.844 11.2562 289 12.2936 289 13.3829C289 15.4059 288.533 16.8583 287.6 17.7402C286.717 18.622 285.55 19.0629 284.098 19.0629H275.462V55.0101C274.891 55.1657 273.983 55.3213 272.738 55.477C271.545 55.6326 270.352 55.7104 269.159 55.7104C267.966 55.7104 266.903 55.6066 265.969 55.3991C265.087 55.2435 264.335 54.9323 263.713 54.4654C263.09 53.9986 262.623 53.3502 262.312 52.5203C262.001 51.6903 261.845 50.601 261.845 49.2523V19.0629H250.174Z" fill="#E4D0D2"/>
<path d="M31.724 3.12306e-05C39.0661 -0.00206746 46.1817 2.5418 51.8583 7.19815C57.5349 11.8545 61.4213 18.3352 62.8552 25.5359C64.289 32.7365 63.1816 40.2116 59.7217 46.6873C56.2618 53.163 50.6634 58.2386 43.8806 61.0491C37.0978 63.8597 29.5503 64.2313 22.5242 62.1006C15.4981 59.97 9.42825 55.4689 5.34893 49.3644C1.2696 43.2599 -0.566745 35.9298 0.152818 28.6231C0.872381 21.3164 4.10333 14.4853 9.29508 9.29381C12.2364 6.34267 15.7323 4.00227 19.5815 2.40727C23.4308 0.812278 27.5574 -0.00582608 31.724 3.12306e-05ZM39.758 29.6472L36.025 31.7693C36.0106 32.0433 35.9673 32.315 35.8959 32.5799C35.6091 33.63 34.9194 34.5245 33.9768 35.0688C33.0341 35.6131 31.9146 35.7634 30.8618 35.4868C30.5797 35.4103 30.3063 35.3047 30.046 35.1718L26.091 37.423L42.0453 49.1693L39.758 29.6472ZM24.036 34.0153L27.8413 31.8519C27.8022 31.3852 27.8441 30.9153 27.9652 30.463C28.252 29.4129 28.9417 28.5184 29.8844 27.9741C30.8271 27.4297 31.9465 27.2795 32.9994 27.5561C33.4704 27.6859 33.9157 27.8954 34.316 28.1757L37.6927 26.2395L21.7591 14.4932L24.036 34.0153ZM49.2376 14.2092C45.1896 10.1471 39.8581 7.61449 34.1518 7.04315C28.4456 6.47182 22.7178 7.89707 17.9447 11.076C13.1717 14.2549 9.64877 18.9908 7.97647 24.4763C6.30418 29.9618 6.58601 35.8576 8.77393 41.1586C10.9618 46.4596 14.9204 50.8378 19.975 53.5469C25.0295 56.2561 30.8671 57.1285 36.4928 56.0154C42.1186 54.9024 47.1842 51.8728 50.8263 47.4431C54.4684 43.0133 56.4616 37.4576 56.4661 31.7228C56.4738 28.4714 55.8391 25.2505 54.5987 22.245C53.3582 19.2396 51.5363 16.5087 49.2376 14.2092Z" fill="#E4D0D2"/>
</svg>
