<svg width="297" height="359" viewBox="0 0 297 359" fill="none" xmlns="http://www.w3.org/2000/svg">
<path d="M148.335 8.15706e-05C167.512 -0.00539994 186.097 6.63888 200.923 18.8007C215.75 30.9625 225.901 47.8893 229.646 66.6966C233.391 85.5038 230.498 105.028 221.462 121.942C212.425 138.855 197.802 152.112 180.087 159.453C162.371 166.794 142.657 167.764 124.306 162.199C105.955 156.634 90.101 144.878 79.4463 128.934C68.7916 112.99 63.9953 93.8443 65.8747 74.7601C67.7541 55.6758 76.1929 37.8338 89.7532 24.2743C97.4356 16.5663 106.566 10.4534 116.62 6.2875C126.674 2.12157 137.452 -0.015217 148.335 8.15706e-05ZM169.319 77.4349L159.569 82.9775C159.531 83.6931 159.418 84.4028 159.231 85.0947C158.482 87.8375 156.681 90.1737 154.219 91.5955C151.757 93.0172 148.833 93.4096 146.083 92.6872C145.346 92.4874 144.632 92.2117 143.952 91.8646L133.622 97.7443L175.293 128.424L169.319 77.4349ZM128.255 88.8438L138.194 83.1933C138.092 81.9744 138.201 80.7471 138.517 79.5656C139.266 76.8229 141.068 74.4866 143.53 73.0649C145.992 71.6431 148.916 71.2508 151.666 71.9732C152.896 72.3121 154.059 72.8595 155.105 73.5915L163.924 68.5343L122.308 37.8544L128.255 88.8438ZM194.078 37.1127C183.505 26.5029 169.58 19.8881 154.676 18.3959C139.772 16.9036 124.812 20.6262 112.345 28.9292C99.8784 37.2321 90.677 49.6015 86.3092 63.9291C81.9413 78.2567 82.6774 93.6556 88.392 107.501C94.1066 121.347 104.446 132.782 117.648 139.858C130.85 146.934 146.097 149.213 160.79 146.305C175.484 143.398 188.715 135.486 198.228 123.916C207.741 112.346 212.947 97.8347 212.958 82.8561C212.978 74.3639 211.321 65.9513 208.081 58.1014C204.841 50.2514 200.082 43.1187 194.078 37.1127Z" fill="#E4D0D2"/>
<path d="M45.9592 203.094C46.4626 203.885 46.8942 204.964 47.2538 206.331C47.6854 207.625 47.9011 208.992 47.9011 210.43C47.9011 213.235 47.2898 215.249 46.0671 216.472C44.9164 217.623 43.3339 218.198 41.3201 218.198H18.6642V230.389H42.2911C42.8665 231.18 43.3339 232.223 43.6936 233.518C44.1251 234.812 44.3409 236.179 44.3409 237.617C44.3409 240.351 43.7296 242.328 42.5069 243.551C41.3561 244.702 39.7737 245.277 37.7599 245.277H18.88V268.041C18.0887 268.257 16.8301 268.473 15.104 268.688C13.4497 268.904 11.7955 269.012 10.1412 269.012C8.48698 269.012 7.01256 268.868 5.71793 268.581C4.49522 268.365 3.45233 267.933 2.58925 267.286C1.72617 266.639 1.07885 265.74 0.647313 264.589C0.215771 263.438 0 261.928 0 260.058V213.127C0 210.035 0.899046 207.589 2.69714 205.791C4.49522 203.993 6.94064 203.094 10.0333 203.094H45.9592ZM54.6372 201.476C54.6372 198.743 55.5363 196.441 57.3344 194.571C59.2044 192.701 61.6498 191.766 64.6706 191.766C67.6914 191.766 70.1009 192.701 71.8989 194.571C73.769 196.441 74.7039 198.743 74.7039 201.476C74.7039 204.209 73.769 206.51 71.8989 208.38C70.1009 210.251 67.6914 211.186 64.6706 211.186C61.6498 211.186 59.2044 210.251 57.3344 208.38C55.5363 206.51 54.6372 204.209 54.6372 201.476ZM73.8409 268.365C73.0497 268.509 71.8629 268.688 70.2806 268.904C68.7702 269.192 67.2238 269.336 65.6416 269.336C64.0593 269.336 62.6208 269.228 61.3261 269.012C60.1034 268.796 59.0605 268.365 58.1975 267.717C57.3344 267.07 56.6511 266.207 56.1476 265.128C55.7161 263.978 55.5003 262.503 55.5003 260.705V216.796C56.2915 216.652 57.4423 216.472 58.9527 216.256C60.5349 215.968 62.1173 215.825 63.6996 215.825C65.2819 215.825 66.6844 215.932 67.9072 216.148C69.2018 216.364 70.2806 216.796 71.1437 217.443C72.0068 218.09 72.6541 218.989 73.0857 220.14C73.5891 221.219 73.8409 222.657 73.8409 224.455V268.365ZM118.746 235.244C118.746 233.014 118.098 231.396 116.804 230.389C115.581 229.31 113.891 228.771 111.733 228.771C110.295 228.771 108.856 228.951 107.418 229.31C106.051 229.67 104.864 230.209 103.857 230.929V268.365C103.138 268.581 101.987 268.796 100.405 269.012C98.8947 269.228 97.3124 269.336 95.6581 269.336C94.0759 269.336 92.6373 269.228 91.3427 269.012C90.1201 268.796 89.0771 268.365 88.214 267.717C87.3509 267.07 86.6678 266.207 86.1642 265.128C85.7327 263.978 85.5169 262.503 85.5169 260.705V228.339C85.5169 226.397 85.9126 224.815 86.7036 223.592C87.5667 222.37 88.7176 221.255 90.156 220.248C92.6015 218.522 95.6581 217.119 99.3262 216.04C103.066 214.961 107.202 214.422 111.733 214.422C119.86 214.422 126.118 216.22 130.505 219.816C134.892 223.341 137.086 228.267 137.086 234.597V268.365C136.367 268.581 135.216 268.796 133.634 269.012C132.123 269.228 130.541 269.336 128.887 269.336C127.305 269.336 125.866 269.228 124.571 269.012C123.349 268.796 122.306 268.365 121.443 267.717C120.58 267.07 119.896 266.207 119.393 265.128C118.961 263.978 118.746 262.503 118.746 260.705V235.244ZM146.15 242.257C146.15 237.51 146.869 233.41 148.307 229.958C149.745 226.433 151.723 223.52 154.241 221.219C156.83 218.917 159.815 217.227 163.196 216.148C166.648 214.997 170.351 214.422 174.308 214.422C175.745 214.422 177.148 214.566 178.515 214.854C179.881 215.069 180.997 215.357 181.86 215.717V198.239C182.579 198.023 183.729 197.808 185.312 197.592C186.894 197.304 188.512 197.16 190.167 197.16C191.749 197.16 193.151 197.268 194.375 197.484C195.669 197.7 196.748 198.131 197.611 198.779C198.474 199.426 199.121 200.325 199.553 201.476C199.985 202.555 200.2 203.993 200.2 205.791V256.929C200.2 260.309 198.617 263.007 195.453 265.02C193.367 266.387 190.67 267.574 187.362 268.581C184.053 269.659 180.242 270.199 175.926 270.199C171.251 270.199 167.043 269.552 163.304 268.257C159.635 266.962 156.507 265.092 153.917 262.647C151.4 260.201 149.458 257.289 148.092 253.908C146.797 250.456 146.15 246.572 146.15 242.257ZM176.789 228.771C172.905 228.771 169.92 229.886 167.835 232.115C165.748 234.345 164.706 237.725 164.706 242.257C164.706 246.716 165.677 250.096 167.619 252.398C169.561 254.627 172.366 255.742 176.034 255.742C177.329 255.742 178.479 255.562 179.486 255.203C180.565 254.771 181.392 254.304 181.968 253.8V230.065C180.529 229.202 178.803 228.771 176.789 228.771ZM231.912 268.041C231.12 268.257 229.862 268.473 228.136 268.688C226.481 268.904 224.827 269.012 223.173 269.012C221.519 269.012 220.045 268.868 218.75 268.581C217.527 268.365 216.484 267.933 215.621 267.286C214.758 266.639 214.111 265.74 213.679 264.589C213.248 263.438 213.032 261.928 213.032 260.058V203.094C213.822 202.95 215.082 202.77 216.808 202.555C218.534 202.267 220.187 202.123 221.771 202.123C223.424 202.123 224.863 202.267 226.086 202.555C227.381 202.77 228.46 203.202 229.323 203.849C230.186 204.497 230.833 205.396 231.265 206.546C231.696 207.697 231.912 209.208 231.912 211.078V268.041ZM242.883 218.198C242.378 217.407 241.912 216.328 241.48 214.961C241.048 213.595 240.833 212.156 240.833 210.646C240.833 207.841 241.444 205.827 242.667 204.604C243.961 203.382 245.615 202.77 247.63 202.77H294.668C295.171 203.562 295.639 204.64 296.07 206.007C296.502 207.374 296.717 208.812 296.717 210.322C296.717 213.127 296.07 215.141 294.775 216.364C293.552 217.587 291.934 218.198 289.921 218.198H277.945V268.041C277.154 268.257 275.895 268.473 274.169 268.688C272.515 268.904 270.86 269.012 269.207 269.012C267.552 269.012 266.078 268.868 264.783 268.581C263.56 268.365 262.518 267.933 261.655 267.286C260.792 266.639 260.144 265.74 259.713 264.589C259.281 263.438 259.065 261.928 259.065 260.058V218.198H242.883Z" fill="#E4D0D2"/>
<g clip-path="url(#clip0_53333_52133)">
<path d="M3.34344 301.126V298.034H19.5906V301.126H13.2966V318.397H9.63747V301.126H3.34344ZM25.163 309.448V318.397H21.5636V298.034H25.0835V305.72H25.2625C25.6204 304.858 26.1739 304.179 26.923 303.681C27.6787 303.178 28.6398 302.926 29.8065 302.926C30.8671 302.926 31.7918 303.148 32.5806 303.592C33.3695 304.036 33.9793 304.686 34.4102 305.541C34.8477 306.396 35.0664 307.44 35.0664 308.673V318.397H31.467V309.23C31.467 308.202 31.2019 307.403 30.6716 306.833C30.1479 306.257 29.4121 305.968 28.4642 305.968C27.8278 305.968 27.2577 306.108 26.7539 306.386C26.2568 306.658 25.8657 307.052 25.5806 307.569C25.3022 308.086 25.163 308.713 25.163 309.448ZM44.4968 318.696C42.9656 318.696 41.6431 318.377 40.5295 317.741C39.4225 317.098 38.5707 316.19 37.9741 315.017C37.3775 313.837 37.0792 312.448 37.0792 310.85C37.0792 309.279 37.3775 307.901 37.9741 306.714C38.5773 305.521 39.4192 304.593 40.4997 303.93C41.5802 303.26 42.8496 302.926 44.3079 302.926C45.2492 302.926 46.1375 303.078 46.9727 303.383C47.8145 303.681 48.557 304.145 49.2 304.775C49.8496 305.405 50.36 306.207 50.7312 307.181C51.1024 308.149 51.288 309.303 51.288 310.642V311.745H38.7696V309.319H47.8377C47.8311 308.63 47.682 308.017 47.3903 307.48C47.0986 306.936 46.691 306.509 46.1673 306.197C45.6502 305.885 45.047 305.73 44.3576 305.73C43.6218 305.73 42.9755 305.909 42.4187 306.267C41.8619 306.618 41.4277 307.082 41.1162 307.659C40.8112 308.229 40.6555 308.855 40.6488 309.538V311.656C40.6488 312.544 40.8112 313.306 41.136 313.943C41.4609 314.572 41.9149 315.056 42.4983 315.394C43.0816 315.726 43.7644 315.892 44.5466 315.892C45.0702 315.892 45.5442 315.819 45.9684 315.673C46.3927 315.52 46.7606 315.298 47.0721 315.007C47.3837 314.715 47.619 314.354 47.7781 313.923L51.1389 314.301C50.9268 315.189 50.5224 315.965 49.9258 316.627C49.3359 317.284 48.5802 317.794 47.6588 318.159C46.7374 318.517 45.6834 318.696 44.4968 318.696ZM59.4375 318.397V298.034H63.037V305.65H63.1861C63.3717 305.279 63.6336 304.885 63.9716 304.467C64.3097 304.043 64.7671 303.681 65.3438 303.383C65.9205 303.078 66.6563 302.926 67.5512 302.926C68.7311 302.926 69.795 303.227 70.7429 303.831C71.6975 304.427 72.4532 305.312 73.01 306.485C73.5734 307.652 73.8551 309.084 73.8551 310.781C73.8551 312.458 73.5801 313.883 73.0299 315.056C72.4797 316.23 71.7306 317.125 70.7827 317.741C69.8348 318.358 68.7609 318.666 67.5611 318.666C66.6861 318.666 65.9603 318.52 65.3836 318.228C64.8069 317.937 64.3428 317.585 63.9915 317.174C63.6468 316.757 63.3783 316.362 63.1861 315.991H62.9773V318.397H59.4375ZM62.9674 310.761C62.9674 311.749 63.1066 312.614 63.385 313.356C63.67 314.099 64.0777 314.679 64.608 315.096C65.1449 315.507 65.7945 315.713 66.5569 315.713C67.3523 315.713 68.0185 315.501 68.5554 315.076C69.0924 314.645 69.4967 314.059 69.7685 313.316C70.0469 312.567 70.1861 311.715 70.1861 310.761C70.1861 309.813 70.0502 308.971 69.7784 308.235C69.5067 307.5 69.1023 306.923 68.5654 306.505C68.0284 306.088 67.3589 305.879 66.5569 305.879C65.7879 305.879 65.135 306.081 64.598 306.485C64.0611 306.89 63.6534 307.456 63.375 308.186C63.1033 308.915 62.9674 309.773 62.9674 310.761ZM82.6765 318.696C81.1453 318.696 79.8228 318.377 78.7092 317.741C77.6022 317.098 76.7504 316.19 76.1538 315.017C75.5572 313.837 75.2589 312.448 75.2589 310.85C75.2589 309.279 75.5572 307.901 76.1538 306.714C76.757 305.521 77.5989 304.593 78.6794 303.93C79.7599 303.26 81.0293 302.926 82.4876 302.926C83.4289 302.926 84.3172 303.078 85.1524 303.383C85.9942 303.681 86.7367 304.145 87.3797 304.775C88.0293 305.405 88.5397 306.207 88.9109 307.181C89.2821 308.149 89.4677 309.303 89.4677 310.642V311.745H76.9493V309.319H86.0174C86.0108 308.63 85.8617 308.017 85.57 307.48C85.2783 306.936 84.8707 306.509 84.347 306.197C83.8299 305.885 83.2267 305.73 82.5373 305.73C81.8015 305.73 81.1552 305.909 80.5984 306.267C80.0416 306.618 79.6074 307.082 79.2958 307.659C78.9909 308.229 78.8351 308.855 78.8285 309.538V311.656C78.8285 312.544 78.9909 313.306 79.3157 313.943C79.6405 314.572 80.0946 315.056 80.6779 315.394C81.2613 315.726 81.944 315.892 82.7262 315.892C83.2499 315.892 83.7239 315.819 84.1481 315.673C84.5724 315.52 84.9403 315.298 85.2518 315.007C85.5634 314.715 85.7987 314.354 85.9578 313.923L89.3186 314.301C89.1065 315.189 88.7021 315.965 88.1055 316.627C87.5155 317.284 86.7599 317.794 85.8385 318.159C84.9171 318.517 83.8631 318.696 82.6765 318.696ZM103.584 307.161L100.303 307.519C100.21 307.188 100.047 306.876 99.8154 306.585C99.59 306.293 99.2851 306.058 98.9006 305.879C98.5161 305.7 98.0455 305.61 97.4887 305.61C96.7396 305.61 96.1099 305.773 95.5995 306.098C95.0957 306.422 94.8471 306.843 94.8537 307.36C94.8471 307.804 95.0095 308.166 95.3409 308.444C95.679 308.723 96.2358 308.951 97.0114 309.13L99.6165 309.687C101.062 309.999 102.136 310.492 102.838 311.169C103.548 311.845 103.906 312.73 103.912 313.823C103.906 314.785 103.624 315.633 103.067 316.369C102.517 317.098 101.751 317.668 100.77 318.079C99.7889 318.49 98.662 318.696 97.3892 318.696C95.5199 318.696 94.0152 318.304 92.875 317.522C91.7349 316.733 91.0554 315.636 90.8367 314.231L94.3466 313.893C94.5057 314.582 94.8438 315.103 95.3608 315.454C95.8779 315.805 96.5507 315.981 97.3793 315.981C98.2344 315.981 98.9205 315.805 99.4375 315.454C99.9612 315.103 100.223 314.669 100.223 314.152C100.223 313.714 100.054 313.353 99.7159 313.068C99.3845 312.783 98.8675 312.564 98.1648 312.411L95.5597 311.865C94.0947 311.56 93.0109 311.046 92.3083 310.323C91.6056 309.594 91.2576 308.673 91.2642 307.559C91.2576 306.618 91.5128 305.803 92.0299 305.113C92.5535 304.417 93.2794 303.88 94.2074 303.502C95.1421 303.118 96.2193 302.926 97.439 302.926C99.2287 302.926 100.637 303.307 101.665 304.069C102.699 304.832 103.339 305.862 103.584 307.161ZM113.507 303.125V305.909H104.727V303.125H113.507ZM106.895 299.466H110.494V313.804C110.494 314.287 110.567 314.659 110.713 314.917C110.865 315.169 111.064 315.341 111.309 315.434C111.555 315.527 111.826 315.573 112.125 315.573C112.35 315.573 112.555 315.557 112.741 315.524C112.933 315.491 113.079 315.461 113.179 315.434L113.785 318.248C113.593 318.314 113.318 318.387 112.96 318.467C112.609 318.546 112.178 318.593 111.667 318.606C110.766 318.633 109.954 318.497 109.231 318.198C108.509 317.893 107.935 317.423 107.511 316.786C107.093 316.15 106.888 315.355 106.895 314.4V299.466ZM128.124 318.696C126.633 318.696 125.34 318.367 124.246 317.711C123.153 317.055 122.304 316.137 121.701 314.957C121.104 313.777 120.806 312.398 120.806 310.821C120.806 309.243 121.104 307.861 121.701 306.674C122.304 305.488 123.153 304.566 124.246 303.91C125.34 303.254 126.633 302.926 128.124 302.926C129.616 302.926 130.908 303.254 132.002 303.91C133.096 304.566 133.941 305.488 134.538 306.674C135.141 307.861 135.442 309.243 135.442 310.821C135.442 312.398 135.141 313.777 134.538 314.957C133.941 316.137 133.096 317.055 132.002 317.711C130.908 318.367 129.616 318.696 128.124 318.696ZM128.144 315.812C128.953 315.812 129.629 315.59 130.173 315.146C130.716 314.695 131.12 314.092 131.386 313.336C131.657 312.581 131.793 311.739 131.793 310.811C131.793 309.876 131.657 309.031 131.386 308.275C131.12 307.513 130.716 306.906 130.173 306.456C129.629 306.005 128.953 305.779 128.144 305.779C127.316 305.779 126.626 306.005 126.076 306.456C125.532 306.906 125.125 307.513 124.853 308.275C124.588 309.031 124.455 309.876 124.455 310.811C124.455 311.739 124.588 312.581 124.853 313.336C125.125 314.092 125.532 314.695 126.076 315.146C126.626 315.59 127.316 315.812 128.144 315.812ZM137.497 324.125V303.125H141.037V305.65H141.246C141.432 305.279 141.694 304.885 142.032 304.467C142.37 304.043 142.827 303.681 143.404 303.383C143.98 303.078 144.716 302.926 145.611 302.926C146.791 302.926 147.855 303.227 148.803 303.831C149.757 304.427 150.513 305.312 151.07 306.485C151.633 307.652 151.915 309.084 151.915 310.781C151.915 312.458 151.64 313.883 151.09 315.056C150.54 316.23 149.791 317.125 148.843 317.741C147.895 318.358 146.821 318.666 145.621 318.666C144.746 318.666 144.02 318.52 143.444 318.228C142.867 317.937 142.403 317.585 142.051 317.174C141.707 316.757 141.438 316.362 141.246 315.991H141.097V324.125H137.497ZM141.027 310.761C141.027 311.749 141.167 312.614 141.445 313.356C141.73 314.099 142.138 314.679 142.668 315.096C143.205 315.507 143.855 315.713 144.617 315.713C145.412 315.713 146.078 315.501 146.615 315.076C147.152 314.645 147.557 314.059 147.828 313.316C148.107 312.567 148.246 311.715 148.246 310.761C148.246 309.813 148.11 308.971 147.838 308.235C147.567 307.5 147.162 306.923 146.625 306.505C146.088 306.088 145.419 305.879 144.617 305.879C143.848 305.879 143.195 306.081 142.658 306.485C142.121 306.89 141.713 307.456 141.435 308.186C141.163 308.915 141.027 309.773 141.027 310.761ZM153.997 324.125V303.125H157.537V305.65H157.746C157.932 305.279 158.194 304.885 158.532 304.467C158.87 304.043 159.327 303.681 159.904 303.383C160.48 303.078 161.216 302.926 162.111 302.926C163.291 302.926 164.355 303.227 165.303 303.831C166.257 304.427 167.013 305.312 167.57 306.485C168.133 307.652 168.415 309.084 168.415 310.781C168.415 312.458 168.14 313.883 167.59 315.056C167.04 316.23 166.291 317.125 165.343 317.741C164.395 318.358 163.321 318.666 162.121 318.666C161.246 318.666 160.52 318.52 159.944 318.228C159.367 317.937 158.903 317.585 158.551 317.174C158.207 316.757 157.938 316.362 157.746 315.991H157.597V324.125H153.997ZM157.527 310.761C157.527 311.749 157.667 312.614 157.945 313.356C158.23 314.099 158.638 314.679 159.168 315.096C159.705 315.507 160.355 315.713 161.117 315.713C161.912 315.713 162.578 315.501 163.115 315.076C163.652 314.645 164.057 314.059 164.328 313.316C164.607 312.567 164.746 311.715 164.746 310.761C164.746 309.813 164.61 308.971 164.338 308.235C164.067 307.5 163.662 306.923 163.125 306.505C162.588 306.088 161.919 305.879 161.117 305.879C160.348 305.879 159.695 306.081 159.158 306.485C158.621 306.89 158.213 307.456 157.935 308.186C157.663 308.915 157.527 309.773 157.527 310.761ZM177.159 318.696C175.668 318.696 174.375 318.367 173.282 317.711C172.188 317.055 171.339 316.137 170.736 314.957C170.14 313.777 169.841 312.398 169.841 310.821C169.841 309.243 170.14 307.861 170.736 306.674C171.339 305.488 172.188 304.566 173.282 303.91C174.375 303.254 175.668 302.926 177.159 302.926C178.651 302.926 179.944 303.254 181.037 303.91C182.131 304.566 182.976 305.488 183.573 306.674C184.176 307.861 184.478 309.243 184.478 310.821C184.478 312.398 184.176 313.777 183.573 314.957C182.976 316.137 182.131 317.055 181.037 317.711C179.944 318.367 178.651 318.696 177.159 318.696ZM177.179 315.812C177.988 315.812 178.664 315.59 179.208 315.146C179.751 314.695 180.156 314.092 180.421 313.336C180.693 312.581 180.828 311.739 180.828 310.811C180.828 309.876 180.693 309.031 180.421 308.275C180.156 307.513 179.751 306.906 179.208 306.456C178.664 306.005 177.988 305.779 177.179 305.779C176.351 305.779 175.661 306.005 175.111 306.456C174.568 306.906 174.16 307.513 173.888 308.275C173.623 309.031 173.49 309.876 173.49 310.811C173.49 311.739 173.623 312.581 173.888 313.336C174.16 314.092 174.568 314.695 175.111 315.146C175.661 315.59 176.351 315.812 177.179 315.812ZM186.533 318.397V303.125H190.023V305.67H190.182C190.46 304.788 190.937 304.109 191.614 303.632C192.296 303.148 193.075 302.906 193.95 302.906C194.149 302.906 194.371 302.916 194.616 302.936C194.868 302.949 195.077 302.972 195.243 303.005V306.316C195.09 306.263 194.848 306.217 194.517 306.177C194.192 306.131 193.877 306.108 193.572 306.108C192.916 306.108 192.326 306.25 191.803 306.535C191.285 306.813 190.878 307.201 190.58 307.698C190.281 308.196 190.132 308.769 190.132 309.419V318.397H186.533ZM205.081 303.125V305.909H196.301V303.125H205.081ZM198.469 299.466H202.068V313.804C202.068 314.287 202.141 314.659 202.287 314.917C202.439 315.169 202.638 315.341 202.884 315.434C203.129 315.527 203.401 315.573 203.699 315.573C203.924 315.573 204.13 315.557 204.315 315.524C204.508 315.491 204.653 315.461 204.753 315.434L205.359 318.248C205.167 318.314 204.892 318.387 204.534 318.467C204.183 318.546 203.752 318.593 203.241 318.606C202.34 318.633 201.528 318.497 200.805 318.198C200.083 317.893 199.509 317.423 199.085 316.786C198.668 316.15 198.462 315.355 198.469 314.4V299.466ZM216.826 311.974V303.125H220.425V318.397H216.935V315.683H216.776C216.431 316.538 215.864 317.237 215.076 317.781C214.293 318.324 213.329 318.596 212.182 318.596C211.181 318.596 210.296 318.374 209.527 317.93C208.765 317.479 208.168 316.826 207.738 315.971C207.307 315.109 207.091 314.069 207.091 312.849V303.125H210.691V312.292C210.691 313.26 210.956 314.029 211.486 314.599C212.016 315.169 212.712 315.454 213.574 315.454C214.105 315.454 214.618 315.325 215.115 315.066C215.613 314.808 216.02 314.423 216.338 313.913C216.663 313.396 216.826 312.75 216.826 311.974ZM226.726 309.448V318.397H223.126V303.125H226.567V305.72H226.746C227.097 304.865 227.657 304.185 228.426 303.681C229.202 303.178 230.16 302.926 231.3 302.926C232.354 302.926 233.272 303.151 234.054 303.602C234.843 304.053 235.453 304.706 235.884 305.561C236.321 306.416 236.536 307.453 236.53 308.673V318.397H232.93V309.23C232.93 308.209 232.665 307.41 232.135 306.833C231.611 306.257 230.885 305.968 229.957 305.968C229.328 305.968 228.767 306.108 228.277 306.386C227.793 306.658 227.412 307.052 227.134 307.569C226.862 308.086 226.726 308.713 226.726 309.448ZM239.189 318.397V303.125H242.788V318.397H239.189ZM240.999 300.957C240.428 300.957 239.938 300.768 239.527 300.39C239.116 300.006 238.91 299.545 238.91 299.008C238.91 298.465 239.116 298.004 239.527 297.626C239.938 297.242 240.428 297.049 240.999 297.049C241.575 297.049 242.066 297.242 242.47 297.626C242.881 298.004 243.087 298.465 243.087 299.008C243.087 299.545 242.881 300.006 242.47 300.39C242.066 300.768 241.575 300.957 240.999 300.957ZM253.116 303.125V305.909H244.336V303.125H253.116ZM246.504 299.466H250.103V313.804C250.103 314.287 250.176 314.659 250.322 314.917C250.475 315.169 250.673 315.341 250.919 315.434C251.164 315.527 251.436 315.573 251.734 315.573C251.959 315.573 252.165 315.557 252.35 315.524C252.543 315.491 252.689 315.461 252.788 315.434L253.395 318.248C253.202 318.314 252.927 318.387 252.569 318.467C252.218 318.546 251.787 318.593 251.277 318.606C250.375 318.633 249.563 318.497 248.841 318.198C248.118 317.893 247.545 317.423 247.12 316.786C246.703 316.15 246.497 315.355 246.504 314.4V299.466ZM255.126 318.397V303.125H258.726V318.397H255.126ZM256.936 300.957C256.366 300.957 255.875 300.768 255.464 300.39C255.053 300.006 254.848 299.545 254.848 299.008C254.848 298.465 255.053 298.004 255.464 297.626C255.875 297.242 256.366 297.049 256.936 297.049C257.513 297.049 258.003 297.242 258.408 297.626C258.819 298.004 259.024 298.465 259.024 299.008C259.024 299.545 258.819 300.006 258.408 300.39C258.003 300.768 257.513 300.957 256.936 300.957ZM268.189 318.696C266.657 318.696 265.335 318.377 264.221 317.741C263.114 317.098 262.262 316.19 261.666 315.017C261.069 313.837 260.771 312.448 260.771 310.85C260.771 309.279 261.069 307.901 261.666 306.714C262.269 305.521 263.111 304.593 264.191 303.93C265.272 303.26 266.541 302.926 268 302.926C268.941 302.926 269.829 303.078 270.664 303.383C271.506 303.681 272.249 304.145 272.892 304.775C273.541 305.405 274.052 306.207 274.423 307.181C274.794 308.149 274.98 309.303 274.98 310.642V311.745H262.461V309.319H271.529C271.523 308.63 271.374 308.017 271.082 307.48C270.79 306.936 270.383 306.509 269.859 306.197C269.342 305.885 268.739 305.73 268.049 305.73C267.314 305.73 266.667 305.909 266.11 306.267C265.554 306.618 265.119 307.082 264.808 307.659C264.503 308.229 264.347 308.855 264.341 309.538V311.656C264.341 312.544 264.503 313.306 264.828 313.943C265.153 314.572 265.607 315.056 266.19 315.394C266.773 315.726 267.456 315.892 268.238 315.892C268.762 315.892 269.236 315.819 269.66 315.673C270.084 315.52 270.452 315.298 270.764 315.007C271.075 314.715 271.311 314.354 271.47 313.923L274.831 314.301C274.618 315.189 274.214 315.965 273.618 316.627C273.028 317.284 272.272 317.794 271.35 318.159C270.429 318.517 269.375 318.696 268.189 318.696ZM289.096 307.161L285.815 307.519C285.722 307.188 285.559 306.876 285.327 306.585C285.102 306.293 284.797 306.058 284.413 305.879C284.028 305.7 283.558 305.61 283.001 305.61C282.252 305.61 281.622 305.773 281.111 306.098C280.608 306.422 280.359 306.843 280.366 307.36C280.359 307.804 280.522 308.166 280.853 308.444C281.191 308.723 281.748 308.951 282.523 309.13L285.129 309.687C286.574 309.999 287.647 310.492 288.35 311.169C289.059 311.845 289.417 312.73 289.424 313.823C289.417 314.785 289.136 315.633 288.579 316.369C288.029 317.098 287.263 317.668 286.282 318.079C285.301 318.49 284.174 318.696 282.901 318.696C281.032 318.696 279.527 318.304 278.387 317.522C277.247 316.733 276.567 315.636 276.349 314.231L279.859 313.893C280.018 314.582 280.356 315.103 280.873 315.454C281.39 315.805 282.063 315.981 282.891 315.981C283.746 315.981 284.433 315.805 284.95 315.454C285.473 315.103 285.735 314.669 285.735 314.152C285.735 313.714 285.566 313.353 285.228 313.068C284.897 312.783 284.379 312.564 283.677 312.411L281.072 311.865C279.607 311.56 278.523 311.046 277.82 310.323C277.118 309.594 276.77 308.673 276.776 307.559C276.77 306.618 277.025 305.803 277.542 305.113C278.066 304.417 278.791 303.88 279.719 303.502C280.654 303.118 281.731 302.926 282.951 302.926C284.741 302.926 286.149 303.307 287.177 304.069C288.211 304.832 288.851 305.862 289.096 307.161ZM10.5943 337.125V339.909H1.56592V337.125H10.5943ZM3.82302 352.397V335.683C3.82302 334.655 4.03514 333.8 4.45938 333.117C4.89026 332.435 5.46696 331.924 6.1895 331.586C6.91204 331.248 7.71412 331.079 8.59575 331.079C9.21885 331.079 9.77236 331.129 10.2563 331.228C10.7402 331.328 11.0981 331.417 11.3301 331.497L10.6142 334.281C10.4617 334.234 10.2695 334.188 10.0375 334.142C9.8055 334.089 9.54698 334.062 9.26194 334.062C8.59243 334.062 8.11848 334.224 7.84007 334.549C7.56829 334.867 7.4324 335.325 7.4324 335.921V352.397H3.82302ZM18.5009 352.696C17.0094 352.696 15.7168 352.367 14.6231 351.711C13.5293 351.055 12.6808 350.137 12.0776 348.957C11.481 347.777 11.1827 346.398 11.1827 344.821C11.1827 343.243 11.481 341.861 12.0776 340.674C12.6808 339.488 13.5293 338.566 14.6231 337.91C15.7168 337.254 17.0094 336.926 18.5009 336.926C19.9924 336.926 21.285 337.254 22.3788 337.91C23.4725 338.566 24.3177 339.488 24.9143 340.674C25.5175 341.861 25.8191 343.243 25.8191 344.821C25.8191 346.398 25.5175 347.777 24.9143 348.957C24.3177 350.137 23.4725 351.055 22.3788 351.711C21.285 352.367 19.9924 352.696 18.5009 352.696ZM18.5208 349.812C19.3295 349.812 20.0057 349.59 20.5492 349.146C21.0928 348.695 21.4971 348.092 21.7623 347.336C22.0341 346.581 22.17 345.739 22.17 344.811C22.17 343.876 22.0341 343.031 21.7623 342.275C21.4971 341.513 21.0928 340.906 20.5492 340.456C20.0057 340.005 19.3295 339.779 18.5208 339.779C17.6922 339.779 17.0028 340.005 16.4526 340.456C15.9091 340.906 15.5014 341.513 15.2296 342.275C14.9645 343.031 14.8319 343.876 14.8319 344.811C14.8319 345.739 14.9645 346.581 15.2296 347.336C15.5014 348.092 15.9091 348.695 16.4526 349.146C17.0028 349.59 17.6922 349.812 18.5208 349.812ZM27.8741 352.397V337.125H31.3642V339.67H31.5233C31.8017 338.788 32.279 338.109 32.9551 337.632C33.6379 337.148 34.4168 336.906 35.2918 336.906C35.4906 336.906 35.7127 336.916 35.958 336.936C36.2098 336.949 36.4187 336.972 36.5844 337.005V340.316C36.4319 340.263 36.19 340.217 35.8585 340.177C35.5337 340.131 35.2188 340.108 34.9139 340.108C34.2577 340.108 33.6677 340.25 33.144 340.535C32.627 340.813 32.2193 341.201 31.921 341.698C31.6227 342.196 31.4736 342.769 31.4736 343.419V352.397H27.8741ZM46.1582 358.125C45.6677 358.125 45.2136 358.085 44.796 358.005C44.385 357.932 44.0569 357.846 43.8116 357.747L44.6469 354.943C45.1705 355.095 45.6379 355.168 46.0489 355.161C46.4598 355.155 46.8211 355.026 47.1327 354.774C47.4509 354.528 47.7193 354.117 47.9381 353.541L48.2463 352.715L42.708 337.125H46.5261L50.046 348.659H50.2051L53.7349 337.125H57.5631L51.448 354.247C51.163 355.055 50.7851 355.748 50.3145 356.325C49.8438 356.908 49.2671 357.352 48.5844 357.657C47.9082 357.969 47.0995 358.125 46.1582 358.125ZM65.1962 352.696C63.7048 352.696 62.4121 352.367 61.3184 351.711C60.2246 351.055 59.3762 350.137 58.7729 348.957C58.1763 347.777 57.8781 346.398 57.8781 344.821C57.8781 343.243 58.1763 341.861 58.7729 340.674C59.3762 339.488 60.2246 338.566 61.3184 337.91C62.4121 337.254 63.7048 336.926 65.1962 336.926C66.6877 336.926 67.9803 337.254 69.0741 337.91C70.1678 338.566 71.013 339.488 71.6096 340.674C72.2128 341.861 72.5144 343.243 72.5144 344.821C72.5144 346.398 72.2128 347.777 71.6096 348.957C71.013 350.137 70.1678 351.055 69.0741 351.711C67.9803 352.367 66.6877 352.696 65.1962 352.696ZM65.2161 349.812C66.0248 349.812 66.701 349.59 67.2445 349.146C67.7881 348.695 68.1924 348.092 68.4576 347.336C68.7294 346.581 68.8653 345.739 68.8653 344.811C68.8653 343.876 68.7294 343.031 68.4576 342.275C68.1924 341.513 67.7881 340.906 67.2445 340.456C66.701 340.005 66.0248 339.779 65.2161 339.779C64.3875 339.779 63.6981 340.005 63.1479 340.456C62.6044 340.906 62.1967 341.513 61.9249 342.275C61.6598 343.031 61.5272 343.876 61.5272 344.811C61.5272 345.739 61.6598 346.581 61.9249 347.336C62.1967 348.092 62.6044 348.695 63.1479 349.146C63.6981 349.59 64.3875 349.812 65.2161 349.812ZM84.3038 345.974V337.125H87.9033V352.397H84.4132V349.683H84.2541C83.9094 350.538 83.3427 351.237 82.5538 351.781C81.7716 352.324 80.8071 352.596 79.6604 352.596C78.6594 352.596 77.7745 352.374 77.0055 351.93C76.2432 351.479 75.6466 350.826 75.2158 349.971C74.7849 349.109 74.5695 348.069 74.5695 346.849V337.125H78.1689V346.292C78.1689 347.26 78.434 348.029 78.9643 348.599C79.4946 349.169 80.1907 349.454 81.0524 349.454C81.5827 349.454 82.0964 349.325 82.5936 349.066C83.0908 348.808 83.4984 348.423 83.8166 347.913C84.1414 347.396 84.3038 346.75 84.3038 345.974ZM92.8219 352.616C92.2187 352.616 91.7017 352.404 91.2708 351.98C90.8399 351.555 90.6278 351.038 90.6344 350.429C90.6278 349.832 90.8399 349.322 91.2708 348.897C91.7017 348.473 92.2187 348.261 92.8219 348.261C93.4053 348.261 93.9124 348.473 94.3433 348.897C94.7808 349.322 95.0028 349.832 95.0094 350.429C95.0028 350.833 94.8968 351.201 94.6913 351.532C94.4924 351.864 94.2272 352.129 93.8958 352.328C93.571 352.52 93.213 352.616 92.8219 352.616ZM105.817 352.397H101.879L109.048 332.034H113.602L120.781 352.397H116.844L111.405 336.21H111.246L105.817 352.397ZM105.946 344.413H116.684V347.376H105.946V344.413ZM125.904 332.034V352.397H122.304V332.034H125.904ZM132.204 332.034V352.397H128.605V332.034H132.204ZM140.851 352.397V337.125H144.45V352.397H140.851ZM142.661 334.957C142.091 334.957 141.6 334.768 141.189 334.39C140.778 334.006 140.573 333.545 140.573 333.008C140.573 332.465 140.778 332.004 141.189 331.626C141.6 331.242 142.091 331.049 142.661 331.049C143.237 331.049 143.728 331.242 144.132 331.626C144.543 332.004 144.749 332.465 144.749 333.008C144.749 333.545 144.543 334.006 144.132 334.39C143.728 334.768 143.237 334.957 142.661 334.957ZM150.751 343.448V352.397H147.152V337.125H150.592V339.72H150.771C151.122 338.865 151.683 338.185 152.452 337.681C153.227 337.178 154.185 336.926 155.325 336.926C156.379 336.926 157.297 337.151 158.079 337.602C158.868 338.053 159.478 338.706 159.909 339.561C160.346 340.416 160.562 341.453 160.555 342.673V352.397H156.956V343.23C156.956 342.209 156.691 341.41 156.16 340.833C155.637 340.257 154.911 339.968 153.983 339.968C153.353 339.968 152.793 340.108 152.302 340.386C151.818 340.658 151.437 341.052 151.159 341.569C150.887 342.086 150.751 342.713 150.751 343.448ZM175.822 352.696C174.33 352.696 173.037 352.367 171.944 351.711C170.85 351.055 170.001 350.137 169.398 348.957C168.802 347.777 168.503 346.398 168.503 344.821C168.503 343.243 168.802 341.861 169.398 340.674C170.001 339.488 170.85 338.566 171.944 337.91C173.037 337.254 174.33 336.926 175.822 336.926C177.313 336.926 178.606 337.254 179.699 337.91C180.793 338.566 181.638 339.488 182.235 340.674C182.838 341.861 183.14 343.243 183.14 344.821C183.14 346.398 182.838 347.777 182.235 348.957C181.638 350.137 180.793 351.055 179.699 351.711C178.606 352.367 177.313 352.696 175.822 352.696ZM175.841 349.812C176.65 349.812 177.326 349.59 177.87 349.146C178.413 348.695 178.818 348.092 179.083 347.336C179.355 346.581 179.491 345.739 179.491 344.811C179.491 343.876 179.355 343.031 179.083 342.275C178.818 341.513 178.413 340.906 177.87 340.456C177.326 340.005 176.65 339.779 175.841 339.779C175.013 339.779 174.323 340.005 173.773 340.456C173.23 340.906 172.822 341.513 172.55 342.275C172.285 343.031 172.153 343.876 172.153 344.811C172.153 345.739 172.285 346.581 172.55 347.336C172.822 348.092 173.23 348.695 173.773 349.146C174.323 349.59 175.013 349.812 175.841 349.812ZM188.794 343.448V352.397H185.195V337.125H188.635V339.72H188.814C189.165 338.865 189.726 338.185 190.494 337.681C191.27 337.178 192.228 336.926 193.368 336.926C194.422 336.926 195.34 337.151 196.122 337.602C196.911 338.053 197.521 338.706 197.952 339.561C198.389 340.416 198.605 341.453 198.598 342.673V352.397H194.999V343.23C194.999 342.209 194.734 341.41 194.203 340.833C193.68 340.257 192.954 339.968 192.026 339.968C191.396 339.968 190.836 340.108 190.345 340.386C189.861 340.658 189.48 341.052 189.202 341.569C188.93 342.086 188.794 342.713 188.794 343.448ZM208.019 352.696C206.487 352.696 205.165 352.377 204.051 351.741C202.944 351.098 202.092 350.19 201.496 349.017C200.899 347.837 200.601 346.448 200.601 344.85C200.601 343.279 200.899 341.901 201.496 340.714C202.099 339.521 202.941 338.593 204.021 337.93C205.102 337.26 206.371 336.926 207.83 336.926C208.771 336.926 209.659 337.078 210.494 337.383C211.336 337.681 212.079 338.145 212.722 338.775C213.371 339.405 213.882 340.207 214.253 341.181C214.624 342.149 214.81 343.303 214.81 344.642V345.745H202.291V343.319H211.36C211.353 342.63 211.204 342.017 210.912 341.48C210.62 340.936 210.213 340.509 209.689 340.197C209.172 339.885 208.569 339.73 207.879 339.73C207.144 339.73 206.497 339.909 205.94 340.267C205.384 340.618 204.949 341.082 204.638 341.659C204.333 342.229 204.177 342.855 204.171 343.538V345.656C204.171 346.544 204.333 347.306 204.658 347.943C204.983 348.572 205.437 349.056 206.02 349.394C206.603 349.726 207.286 349.892 208.068 349.892C208.592 349.892 209.066 349.819 209.49 349.673C209.914 349.52 210.282 349.298 210.594 349.007C210.905 348.715 211.141 348.354 211.3 347.923L214.661 348.301C214.449 349.189 214.044 349.965 213.448 350.627C212.858 351.284 212.102 351.794 211.181 352.159C210.259 352.517 209.205 352.696 208.019 352.696ZM222.8 358.125V337.125H226.34V339.65H226.549C226.734 339.279 226.996 338.884 227.334 338.467C227.672 338.043 228.13 337.681 228.706 337.383C229.283 337.078 230.019 336.926 230.914 336.926C232.094 336.926 233.158 337.227 234.106 337.831C235.06 338.427 235.816 339.312 236.373 340.485C236.936 341.652 237.218 343.084 237.218 344.781C237.218 346.458 236.943 347.883 236.393 349.056C235.842 350.23 235.093 351.125 234.145 351.741C233.197 352.358 232.124 352.666 230.924 352.666C230.049 352.666 229.323 352.52 228.746 352.228C228.17 351.937 227.706 351.585 227.354 351.174C227.01 350.757 226.741 350.362 226.549 349.991H226.4V358.125H222.8ZM226.33 344.761C226.33 345.749 226.469 346.614 226.748 347.356C227.033 348.099 227.44 348.679 227.971 349.096C228.508 349.507 229.157 349.713 229.92 349.713C230.715 349.713 231.381 349.501 231.918 349.076C232.455 348.645 232.859 348.059 233.131 347.316C233.41 346.567 233.549 345.715 233.549 344.761C233.549 343.813 233.413 342.971 233.141 342.235C232.869 341.5 232.465 340.923 231.928 340.505C231.391 340.088 230.722 339.879 229.92 339.879C229.151 339.879 228.498 340.081 227.961 340.485C227.424 340.89 227.016 341.456 226.738 342.186C226.466 342.915 226.33 343.773 226.33 344.761ZM242.9 332.034V352.397H239.3V332.034H242.9ZM249.996 352.706C249.028 352.706 248.156 352.533 247.381 352.188C246.612 351.837 246.002 351.32 245.551 350.637C245.107 349.955 244.885 349.113 244.885 348.112C244.885 347.25 245.044 346.537 245.362 345.974C245.681 345.411 246.115 344.96 246.665 344.622C247.215 344.284 247.835 344.028 248.524 343.856C249.22 343.677 249.94 343.548 250.682 343.468C251.577 343.375 252.303 343.293 252.86 343.22C253.416 343.14 253.821 343.021 254.073 342.862C254.331 342.696 254.46 342.441 254.46 342.096V342.036C254.46 341.287 254.238 340.707 253.794 340.296C253.35 339.885 252.71 339.68 251.875 339.68C250.994 339.68 250.294 339.872 249.777 340.257C249.267 340.641 248.922 341.095 248.743 341.619L245.382 341.142C245.647 340.214 246.085 339.438 246.695 338.815C247.305 338.185 248.05 337.715 248.932 337.403C249.814 337.085 250.788 336.926 251.855 336.926C252.591 336.926 253.324 337.012 254.053 337.184C254.782 337.357 255.448 337.642 256.051 338.039C256.655 338.43 257.138 338.964 257.503 339.64C257.874 340.316 258.06 341.161 258.06 342.176V352.397H254.6V350.299H254.48C254.262 350.724 253.953 351.121 253.556 351.492C253.164 351.857 252.671 352.152 252.074 352.377C251.484 352.596 250.791 352.706 249.996 352.706ZM250.931 350.061C251.653 350.061 252.28 349.918 252.81 349.633C253.34 349.341 253.748 348.957 254.033 348.48C254.324 348.002 254.47 347.482 254.47 346.919V345.119C254.358 345.212 254.165 345.298 253.894 345.377C253.628 345.457 253.33 345.527 252.999 345.586C252.667 345.646 252.339 345.699 252.014 345.745C251.69 345.792 251.408 345.831 251.169 345.865C250.632 345.938 250.152 346.057 249.727 346.223C249.303 346.388 248.968 346.62 248.723 346.919C248.478 347.21 248.355 347.588 248.355 348.052C248.355 348.715 248.597 349.215 249.081 349.554C249.565 349.892 250.182 350.061 250.931 350.061ZM267.341 352.696C265.816 352.696 264.507 352.361 263.414 351.691C262.326 351.022 261.488 350.097 260.898 348.917C260.315 347.731 260.023 346.365 260.023 344.821C260.023 343.269 260.321 341.901 260.918 340.714C261.514 339.521 262.356 338.593 263.443 337.93C264.537 337.26 265.83 336.926 267.321 336.926C268.561 336.926 269.658 337.154 270.612 337.612C271.574 338.063 272.339 338.702 272.909 339.531C273.479 340.353 273.804 341.314 273.884 342.414H270.443C270.304 341.679 269.973 341.065 269.449 340.575C268.932 340.078 268.239 339.829 267.371 339.829C266.635 339.829 265.989 340.028 265.432 340.426C264.875 340.817 264.441 341.38 264.129 342.116C263.824 342.852 263.672 343.733 263.672 344.761C263.672 345.802 263.824 346.697 264.129 347.446C264.434 348.188 264.862 348.761 265.412 349.166C265.969 349.563 266.622 349.762 267.371 349.762C267.901 349.762 268.375 349.663 268.793 349.464C269.217 349.259 269.572 348.964 269.857 348.579C270.142 348.195 270.337 347.727 270.443 347.177H273.884C273.798 348.258 273.479 349.215 272.929 350.051C272.379 350.879 271.63 351.529 270.682 352C269.734 352.464 268.62 352.696 267.341 352.696ZM282.601 352.696C281.069 352.696 279.747 352.377 278.633 351.741C277.526 351.098 276.675 350.19 276.078 349.017C275.481 347.837 275.183 346.448 275.183 344.85C275.183 343.279 275.481 341.901 276.078 340.714C276.681 339.521 277.523 338.593 278.603 337.93C279.684 337.26 280.953 336.926 282.412 336.926C283.353 336.926 284.241 337.078 285.077 337.383C285.918 337.681 286.661 338.145 287.304 338.775C287.953 339.405 288.464 340.207 288.835 341.181C289.206 342.149 289.392 343.303 289.392 344.642V345.745H276.873V343.319H285.942C285.935 342.63 285.786 342.017 285.494 341.48C285.202 340.936 284.795 340.509 284.271 340.197C283.754 339.885 283.151 339.73 282.461 339.73C281.726 339.73 281.079 339.909 280.523 340.267C279.966 340.618 279.532 341.082 279.22 341.659C278.915 342.229 278.759 342.855 278.753 343.538V345.656C278.753 346.544 278.915 347.306 279.24 347.943C279.565 348.572 280.019 349.056 280.602 349.394C281.185 349.726 281.868 349.892 282.65 349.892C283.174 349.892 283.648 349.819 284.072 349.673C284.496 349.52 284.864 349.298 285.176 349.007C285.487 348.715 285.723 348.354 285.882 347.923L289.243 348.301C289.031 349.189 288.626 349.965 288.03 350.627C287.44 351.284 286.684 351.794 285.763 352.159C284.841 352.517 283.787 352.696 282.601 352.696ZM293.654 352.616C293.051 352.616 292.534 352.404 292.103 351.98C291.672 351.555 291.46 351.038 291.467 350.429C291.46 349.832 291.672 349.322 292.103 348.897C292.534 348.473 293.051 348.261 293.654 348.261C294.238 348.261 294.745 348.473 295.176 348.897C295.613 349.322 295.835 349.832 295.842 350.429C295.835 350.833 295.729 351.201 295.524 351.532C295.325 351.864 295.06 352.129 294.728 352.328C294.403 352.52 294.045 352.616 293.654 352.616Z" fill="#E4D0D2"/>
</g>
<defs>
<clipPath id="clip0_53333_52133">
<rect width="295" height="62" fill="white" transform="translate(0.858887 296.199)"/>
</clipPath>
</defs>
</svg>
